<?xml version="1.0" standalone="no"?>
<!DOCTYPE svg PUBLIC "-//W3C//DTD SVG 20010904//EN"
 "http://www.w3.org/TR/2001/REC-SVG-20010904/DTD/svg10.dtd">
<svg version="1.0" xmlns="http://www.w3.org/2000/svg"
 width="512.000000pt" height="512.000000pt" viewBox="0 0 512.000000 512.000000"
 preserveAspectRatio="xMidYMid meet">
<metadata>
Created by potrace 1.14, written by Peter Selinger 2001-2017
</metadata>
<g transform="translate(0.000000,512.000000) scale(0.100000,-0.100000)"
fill="#000000" stroke="none">
<path d="M1348 4502 c-15 -2 -39 -17 -54 -35 -67 -79 24 -195 118 -149 104 52
53 199 -64 184z"/>
<path d="M1579 4487 c-83 -55 -48 -176 51 -179 92 -3 135 127 58 175 -43 27
-73 28 -109 4z"/>
<path d="M1839 4487 c-43 -29 -60 -86 -38 -125 44 -81 168 -66 184 22 17 87
-75 151 -146 103z"/>
<path d="M329 4042 c-60 -30 -77 -100 -36 -147 69 -79 197 -18 171 83 -16 63
-78 92 -135 64z"/>
<path d="M593 4045 c-90 -38 -81 -158 14 -184 61 -17 111 19 120 87 4 31 0 44
-18 65 -32 36 -77 48 -116 32z"/>
<path d="M861 4044 c-75 -32 -80 -136 -9 -176 18 -9 258 -12 1082 -13 997 -1
1060 0 1087 17 16 10 35 29 41 43 16 36 0 93 -35 119 -28 21 -31 21 -1084 21
-744 0 -1064 -3 -1082 -11z"/>
<path d="M1835 3585 c-39 -27 -56 -85 -34 -121 8 -14 138 -148 289 -299 151
-151 272 -276 270 -276 -3 -1 -501 -2 -1107 -3 -1097 -2 -1102 -2 -1130 -22
-34 -26 -51 -83 -35 -118 6 -14 23 -33 39 -43 26 -17 89 -18 1266 -18 1173 -1
1240 0 1268 17 16 10 34 30 40 45 23 61 13 74 -281 368 -154 154 -280 282
-280 285 0 3 97 5 215 5 l215 -1 485 -484 c266 -267 485 -490 485 -495 0 -6
-218 -228 -485 -495 l-485 -485 -215 0 c-118 0 -215 2 -215 5 0 3 126 131 280
284 298 298 308 311 278 373 -29 61 20 58 -1047 58 l-973 -1 -28 -31 c-20 -23
-30 -28 -34 -18 -9 24 -56 48 -93 47 -72 -3 -118 -92 -77 -150 20 -29 66 -52
94 -47 29 6 70 32 76 50 4 10 14 4 34 -18 l28 -32 841 0 c463 0 841 -2 841 -5
0 -3 -127 -132 -282 -288 l-283 -282 0 -45 c0 -35 6 -50 27 -72 l28 -27 377
-1 c208 -1 392 2 408 7 22 6 187 164 585 562 305 305 558 563 561 573 26 64
43 43 -548 636 -307 307 -567 563 -578 570 -14 7 -139 11 -405 11 -371 1 -386
0 -415 -19z"/>
<path d="M3105 3590 c-38 -19 -59 -62 -51 -103 5 -26 111 -137 521 -547 l515
-515 -520 -520 c-500 -500 -520 -522 -520 -558 0 -26 8 -46 29 -69 l29 -32
378 -1 c209 -1 392 2 409 7 21 6 196 174 587 565 576 576 582 583 564 640 -7
21 -1099 1117 -1131 1136 -14 8 -136 11 -400 12 -319 0 -384 -2 -410 -15z
m1215 -675 l490 -490 -490 -490 -490 -490 -207 -1 c-115 0 -212 1 -216 4 -5 2
197 209 448 461 251 251 460 463 465 471 5 8 10 30 10 49 0 39 24 13 -549 585
-209 209 -378 382 -376 385 2 3 98 6 215 6 l211 -1 489 -489z"/>
<path d="M221 2149 c-84 -51 -52 -181 44 -181 98 0 142 124 63 176 -37 24 -73
26 -107 5z"/>
<path d="M800 1168 c-38 -14 -59 -38 -66 -75 -12 -65 35 -117 103 -115 91 4
126 127 50 177 -32 21 -57 25 -87 13z"/>
<path d="M1064 1169 c-46 -13 -69 -44 -69 -95 0 -74 70 -119 137 -86 106 53
47 211 -68 181z"/>
<path d="M1312 1165 c-44 -19 -66 -57 -59 -101 8 -46 30 -71 75 -84 60 -16
110 21 119 88 4 31 0 44 -18 65 -32 36 -77 48 -117 32z"/>
<path d="M1085 806 c-44 -19 -69 -60 -62 -103 7 -43 23 -62 65 -80 30 -12 38
-12 70 4 20 10 43 31 51 47 37 78 -46 166 -124 132z"/>
<path d="M1327 796 c-59 -40 -61 -123 -3 -161 59 -39 133 -10 150 58 22 88
-72 153 -147 103z"/>
<path d="M1603 805 c-45 -19 -67 -57 -60 -101 7 -44 23 -63 65 -81 30 -12 38
-12 70 4 89 43 74 161 -23 187 -11 3 -34 -1 -52 -9z"/>
<path d="M1863 805 c-44 -19 -67 -57 -60 -101 7 -44 23 -63 65 -81 30 -12 38
-12 70 4 47 23 68 64 56 111 -15 60 -75 91 -131 67z"/>
<path d="M2115 800 c-64 -32 -70 -121 -12 -164 28 -21 37 -21 590 -22 448 0
567 2 589 13 64 31 78 105 29 154 -16 16 -35 30 -43 30 -7 1 -263 2 -568 3
-477 1 -559 -1 -585 -14z"/>
</g>
</svg>
